<svg id="account_circle_black_24dp" xmlns="http://www.w3.org/2000/svg" width="32" height="32" viewBox="0 0 32 32">
  <path id="Path_2118" data-name="Path 2118" d="M0,0H32V32H0Z" fill="none"/>
  <path id="Path_2119" data-name="Path 2119" d="M14.466,2A12.466,12.466,0,1,0,26.931,14.466,12.47,12.47,0,0,0,14.466,2Zm0,3.74a3.74,3.74,0,1,1-3.74,3.74A3.735,3.735,0,0,1,14.466,5.74Zm0,17.7a8.976,8.976,0,0,1-7.479-4.014c.037-2.481,4.986-3.839,7.479-3.839s7.442,1.359,7.479,3.839A8.976,8.976,0,0,1,14.466,23.441Z" transform="translate(1.534 1.534)" fill="#8b0000"/>
</svg>
