<?xml version="1.0" encoding="utf-8"?>
<!-- Generator: Adobe Illustrator 24.0.1, SVG Export Plug-In . SVG Version: 6.00 Build 0)  -->
<svg version="1.1" id="Layer_1" xmlns="http://www.w3.org/2000/svg" xmlns:xlink="http://www.w3.org/1999/xlink" x="0px" y="0px"
	 viewBox="0 0 24 24" style="enable-background:new 0 0 24 24;" xml:space="preserve">
<style type="text/css">
	.st0{fill:#8B0000;}
</style>
<g>
	<path class="st0" d="M22.73,17.32c-0.95,1.48-2.2,2.65-3.7,3.55c0.05,0.17,0.1,0.32,0.14,0.47c0.1,0.36,0.2,0.72,0.31,1.08
		c0.04,0.14-0.02,0.28-0.16,0.33c-0.14,0.05-0.28,0.1-0.42,0.14c-0.39,0.12-0.77,0.24-1.16,0.36c-0.43,0.13-0.86,0.27-1.29,0.4
		c-0.32,0.1-0.63,0.2-0.95,0.3c-0.1,0.03-0.21,0.04-0.29,0.06c-0.11-0.08-0.16-0.15-0.19-0.25c-0.12-0.43-0.25-0.85-0.37-1.27
		c-0.01-0.02-0.01-0.03-0.03-0.07c-1.27,0.18-2.55,0.17-3.82-0.05c-0.08,0.14-0.15,0.26-0.22,0.39c-0.14,0.26-0.27,0.52-0.41,0.78
		c-0.1,0.18-0.25,0.23-0.44,0.15c-0.53-0.2-1.06-0.4-1.59-0.6c-0.45-0.17-0.9-0.34-1.34-0.51c-0.26-0.1-0.52-0.2-0.79-0.3
		c-0.21-0.08-0.26-0.21-0.16-0.41c0.19-0.36,0.38-0.72,0.57-1.08c0.01-0.02,0.01-0.04,0.02-0.07c-0.08-0.06-0.16-0.11-0.25-0.17
		c-0.58-0.37-1.11-0.81-1.6-1.28c-0.21-0.2-0.4-0.41-0.59-0.62c-0.05-0.05-0.09-0.06-0.15-0.03c-0.38,0.17-0.76,0.33-1.14,0.49
		c-0.13,0.06-0.26,0.02-0.35-0.09c-0.06-0.08-0.11-0.17-0.17-0.25c-0.24-0.4-0.49-0.81-0.73-1.21c-0.24-0.4-0.49-0.81-0.73-1.21
		c-0.13-0.22-0.26-0.44-0.39-0.65c-0.09-0.15-0.06-0.27,0.09-0.35c0.19-0.1,0.39-0.18,0.58-0.26c0.23-0.1,0.47-0.2,0.7-0.31
		c0.03-0.01,0.05-0.03,0.07-0.05c-0.02-0.08-0.05-0.15-0.06-0.22c-0.09-0.47-0.21-0.94-0.27-1.41c-0.07-0.51-0.08-1.03-0.06-1.54
		c0.01-0.13,0-0.14-0.13-0.17c-0.33-0.09-0.67-0.18-1-0.27c-0.11-0.03-0.2-0.09-0.26-0.18c-0.03-0.15,0.01-0.29,0.05-0.44
		C0.2,9.94,0.33,9.4,0.46,8.85C0.6,8.27,0.73,7.69,0.87,7.11C0.9,7,0.94,6.89,1.06,6.86c0.06-0.01,0.12-0.01,0.18,0
		c0.41,0.11,0.82,0.22,1.23,0.33c0.07,0.02,0.11,0,0.14-0.06c0.2-0.38,0.43-0.74,0.68-1.09c0.34-0.48,0.72-0.93,1.14-1.35
		c0.01-0.01,0.03-0.03,0.04-0.05C4.41,4.54,4.35,4.45,4.29,4.36C4.16,4.17,4.04,3.98,3.9,3.8C3.77,3.63,3.81,3.43,3.98,3.32
		c0.58-0.38,1.16-0.78,1.74-1.17C6.23,1.8,6.73,1.46,7.24,1.11c0.15-0.1,0.33-0.06,0.43,0.09C7.86,1.5,8.06,1.78,8.26,2.07
		C8.29,2.12,8.33,2.12,8.39,2.1c0.36-0.13,0.72-0.26,1.09-0.37c0.48-0.14,0.98-0.25,1.48-0.32c0.09-0.01,0.12-0.05,0.14-0.13
		c0.05-0.34,0.11-0.68,0.15-1.03c0.02-0.16,0.16-0.27,0.3-0.26c0.36,0.02,0.73,0.05,1.09,0.07c0.76,0.05,1.52,0.09,2.28,0.13
		c0.35,0.02,0.7,0.04,1.05,0.07c0.06,0,0.11,0.03,0.16,0.05c0.09,0.05,0.12,0.12,0.1,0.23c-0.06,0.37-0.11,0.74-0.17,1.11
		c0.03,0.02,0.06,0.04,0.09,0.05c0.59,0.16,1.17,0.36,1.72,0.62c0.41,0.2,0.8,0.42,1.21,0.62c0.01,0,0.02,0.01,0.04,0.01
		c0.02-0.01,0.04-0.02,0.06-0.03c0.16-0.15,0.33-0.3,0.49-0.45c0.13-0.12,0.25-0.23,0.38-0.35c0.19-0.17,0.32-0.17,0.52-0.01
		c0.23,0.19,0.46,0.38,0.69,0.56c0.35,0.29,0.71,0.58,1.06,0.87c0.35,0.29,0.7,0.58,1.05,0.87c0.08,0.07,0.17,0.13,0.24,0.21
		c0.1,0.1,0.11,0.22,0.01,0.32c-0.14,0.14-0.29,0.27-0.43,0.41c-0.23,0.21-0.46,0.43-0.69,0.64C22.44,6,22.44,6.01,22.43,6.03
		c0.72,1,1.24,2.1,1.57,3.3c-0.02,0.01-0.06,0.02-0.09,0.02c-0.8,0-1.59,0-2.39,0c-0.06,0-0.09-0.02-0.11-0.08
		c-0.19-0.54-0.44-1.05-0.74-1.54c-0.27-0.44-0.59-0.84-0.93-1.23c-0.41-0.45-0.86-0.85-1.35-1.2c-0.41-0.3-0.85-0.57-1.31-0.79
		c-0.34-0.15-0.67-0.31-1.02-0.43c-0.36-0.13-0.73-0.23-1.11-0.31c-0.98-0.22-1.97-0.28-2.97-0.19c-0.6,0.06-1.2,0.16-1.77,0.33
		C9.89,4,9.59,4.13,9.28,4.23C8.82,4.38,8.44,4.68,8.05,4.94C7.62,5.23,7.19,5.53,6.75,5.81c-0.4,0.26-0.7,0.61-1,0.97
		C5.62,6.93,5.5,7.09,5.38,7.25C5.04,7.72,4.75,8.21,4.52,8.74C4.34,9.14,4.2,9.54,4.1,9.96c-0.14,0.59-0.24,1.18-0.25,1.79
		c-0.01,0.65,0.06,1.29,0.21,1.92c0.11,0.49,0.27,0.96,0.47,1.42c0.19,0.44,0.43,0.86,0.7,1.26c0.38,0.56,0.82,1.07,1.32,1.52
		c0.27,0.24,0.56,0.46,0.85,0.68c0.41,0.31,0.86,0.57,1.33,0.78c0.33,0.15,0.68,0.28,1.02,0.41c0.42,0.16,0.86,0.27,1.3,0.35
		c0.72,0.13,1.44,0.2,2.17,0.16c0.36-0.02,0.72-0.05,1.08-0.1c0.46-0.06,0.91-0.16,1.35-0.31c0.36-0.13,0.73-0.25,1.09-0.4
		c0.28-0.12,0.55-0.27,0.81-0.41c0.21-0.12,0.42-0.25,0.63-0.38c0.36-0.24,0.71-0.52,1.02-0.82c0.17-0.16,0.32-0.32,0.49-0.48
		c0.03-0.03,0.08-0.04,0.12-0.04c0.92,0,1.83,0,2.75,0c0.05,0,0.1,0,0.15,0C22.72,17.3,22.72,17.31,22.73,17.32z"/>
	<path class="st0" d="M16.87,17.32c-0.02,0.02-0.04,0.04-0.07,0.06c-0.48,0.3-0.99,0.55-1.52,0.73c-0.45,0.15-0.9,0.26-1.37,0.33
		c-0.65,0.09-1.29,0.1-1.94,0.02c-0.52-0.06-1.03-0.18-1.53-0.35c-0.45-0.15-0.88-0.35-1.29-0.58c-0.43-0.25-0.83-0.55-1.2-0.88
		c-0.36-0.33-0.69-0.7-0.97-1.11c-0.3-0.44-0.55-0.9-0.73-1.4c-0.3-0.84-0.42-1.71-0.34-2.6c0.04-0.5,0.14-0.99,0.31-1.46
		C6.35,9.73,6.49,9.4,6.67,9.08C6.95,8.57,7.3,8.1,7.71,7.69C8.04,7.35,8.4,7.05,8.8,6.79C9.14,6.56,9.5,6.36,9.88,6.2
		c0.28-0.12,0.57-0.23,0.86-0.31c0.34-0.1,0.69-0.18,1.04-0.23c0.51-0.08,1.03-0.1,1.55-0.07c0.51,0.03,1.01,0.11,1.5,0.25
		c0.42,0.11,0.82,0.26,1.21,0.44c0.52,0.25,1,0.55,1.45,0.92c0.35,0.29,0.67,0.61,0.96,0.97c0.28,0.34,0.51,0.71,0.72,1.1
		c0.01,0.02,0.01,0.04,0.03,0.07c-0.04,0.01-0.07,0.02-0.1,0.02c-0.3,0-0.61,0-0.91,0c-0.06,0-0.1-0.02-0.14-0.08
		C17.76,8.81,17.4,8.4,17,8.03c-0.33-0.3-0.7-0.56-1.1-0.77c-0.29-0.14-0.58-0.28-0.87-0.39c-0.6-0.23-1.22-0.35-1.87-0.37
		c-0.46-0.02-0.92,0-1.37,0.08c-0.41,0.07-0.82,0.18-1.21,0.33c-0.46,0.18-0.89,0.4-1.29,0.68C8.99,7.8,8.72,8.03,8.46,8.28
		c-0.4,0.4-0.74,0.86-1,1.37c-0.22,0.42-0.38,0.87-0.48,1.34c-0.09,0.47-0.13,0.95-0.09,1.43c0.04,0.54,0.16,1.06,0.36,1.55
		c0.16,0.39,0.36,0.76,0.61,1.11c0.37,0.52,0.82,0.96,1.33,1.34c0.47,0.34,0.99,0.61,1.54,0.8c0.88,0.31,1.79,0.42,2.72,0.34
		c0.45-0.04,0.88-0.13,1.31-0.26c0.03-0.01,0.07-0.01,0.11-0.01c0.65,0,1.29,0,1.94,0c0.02,0,0.04,0,0.05,0.01
		C16.86,17.3,16.87,17.31,16.87,17.32z"/>
	<path class="st0" d="M20.25,13.53c-0.26,0-0.52,0-0.79,0c0-0.22,0-0.42,0-0.63c0.53,0,1.06,0,1.59,0c0,0.04,0.01,0.07,0.01,0.09
		c0,0.29-0.05,0.57-0.15,0.84c-0.12,0.33-0.31,0.6-0.58,0.82c-0.37,0.3-0.79,0.4-1.25,0.31c-0.31-0.06-0.58-0.23-0.8-0.46
		c-0.22-0.23-0.37-0.5-0.46-0.79c-0.1-0.32-0.11-0.64-0.08-0.97c0.03-0.36,0.16-0.69,0.37-0.98c0.2-0.29,0.47-0.51,0.8-0.63
		c0.26-0.09,0.52-0.11,0.79-0.05c0.37,0.08,0.66,0.29,0.9,0.58c0.16,0.19,0.28,0.41,0.35,0.66c0,0.02,0.01,0.04,0.01,0.05
		c-0.05,0.03-0.6,0.05-0.77,0.02c-0.02-0.03-0.04-0.07-0.06-0.1c-0.18-0.33-0.53-0.49-0.85-0.44c-0.29,0.05-0.49,0.24-0.64,0.48
		c-0.16,0.27-0.2,0.57-0.17,0.88c0.02,0.26,0.12,0.49,0.29,0.69c0.42,0.53,1.2,0.38,1.44-0.15c0.03-0.06,0.06-0.12,0.08-0.19
		C20.26,13.55,20.25,13.54,20.25,13.53z"/>
	<path class="st0" d="M14.6,14.92c-0.05,0.01-0.08,0.01-0.11,0.01c-0.23,0-0.47,0-0.7,0c-0.07,0-0.11-0.03-0.14-0.09
		c-0.22-0.39-0.44-0.77-0.66-1.16c-0.01-0.02-0.02-0.04-0.04-0.06c-0.01,0-0.02,0-0.02,0c0,0.43,0,0.85,0,1.29
		c-0.25,0-0.47,0-0.71,0c0-1.28,0-2.55,0-3.82c0.03-0.01,0.05-0.01,0.07-0.01c0.39,0,0.79,0,1.18,0.01
		c0.31,0.01,0.55,0.17,0.72,0.43c0.29,0.44,0.3,0.91,0.13,1.39c-0.09,0.26-0.27,0.47-0.54,0.58c-0.03,0.01-0.05,0.03-0.08,0.05
		C13.99,14,14.29,14.45,14.6,14.92z M12.93,11.78c0,0.37,0,0.74,0,1.1c0.3,0.08,0.57,0.01,0.7-0.19c0.13-0.19,0.12-0.57-0.02-0.75
		C13.48,11.77,13.19,11.69,12.93,11.78z"/>
	<path class="st0" d="M9.34,11.09c0.85,0,1.7,0,2.56,0c0,0.25,0,0.5,0,0.76c-0.3,0-0.6,0-0.91,0c0,1.03,0,2.04,0,3.03
		c-0.07,0.05-0.61,0.06-0.72,0.02c0-1.01,0-2.02,0-3.04c-0.05-0.01-0.08-0.01-0.11-0.01c-0.23,0-0.47,0-0.7,0
		c-0.03,0-0.07-0.01-0.11-0.01C9.34,11.6,9.34,11.35,9.34,11.09z"/>
	<path class="st0" d="M22.22,14.16c0.4,0,0.78,0,1.16,0c0,0.26,0,0.51,0,0.76c-0.62,0-1.24,0-1.86,0c0-1.28,0-2.55,0-3.82
		c0.23,0,0.46,0,0.7,0C22.22,12.12,22.22,13.13,22.22,14.16z"/>
	<path class="st0" d="M15.55,14.92c-0.23,0-0.46,0-0.7,0c0-1.28,0-2.55,0-3.82c0.24,0,0.46,0,0.7,0
		C15.55,12.38,15.55,13.64,15.55,14.92z"/>
	<path class="st0" d="M15.93,13.9c0-0.16,0-0.3,0-0.45c0.49,0,0.97,0,1.47,0c0,0.15,0,0.29,0,0.45C16.91,13.9,16.43,13.9,15.93,13.9
		z"/>
</g>
</svg>
